<?xml version="1.0" encoding="utf-8"?>
<!-- Generator: Adobe Illustrator 17.0.0, SVG Export Plug-In . SVG Version: 6.00 Build 0)  -->
<!DOCTYPE svg PUBLIC "-//W3C//DTD SVG 1.1//EN" "http://www.w3.org/Graphics/SVG/1.1/DTD/svg11.dtd">
<svg version="1.1" id="Layer_1" xmlns="http://www.w3.org/2000/svg" xmlns:xlink="http://www.w3.org/1999/xlink" x="0px" y="0px"
	 width="179.964px" height="224.159px" viewBox="0 0 179.964 224.159" enable-background="new 0 0 179.964 224.159"
	 xml:space="preserve">
<g>
	<path fill="#FFFFFF" d="M148.05,154.79c0,3.397-2.109,7.953-6.718,9.797l-26.563,11.03l-0.87,23.993
		c-0.284,8.831-4.437,11.757-13.284,11.757c-12.534-0.002-73.744-0.011-87.02-0.011c0-3.902,0-179.861,0-189.618
		c0.148,0,62.292,0.016,100.926,0.035c2.064-4.029,4.251-8.299,6.568-12.829H8.152C3.657,8.944,0,13.251,0,18.546v196.016
		c0,5.292,3.657,9.598,8.152,9.598h90.734c12.699,0,25.471-3.346,33.253-14.996l26.818-40.147c1.745-2.612,2.893-4.839,2.893-7.683
		V85.6l-13.801,27.029V154.79z"/>
	<path fill="#FFFFFF" d="M81.836,169.233c47.706-49.086,48.977-49.234,54.29-59.64l43.235-84.677
		C184.205,15.437,158.661,0,144.923,0c-3.555,0-6.318,1.033-7.561,3.469C90.465,95.312,90.567,93.184,88.516,104.912
		c-0.083,0.474-10.931,62.277-10.897,62.757c0.094,1.459,1.259,2.309,2.453,2.309C80.703,169.978,81.342,169.742,81.836,169.233z
		 M96.054,106.101c0.161-1.61,1.657-2.53,3.38-2.53c1.938,0,4.164,1.165,5.099,3.823c1.517,4.31,4.958,5.204,7.681,5.204
		c1.81,0,3.302-0.395,3.701-0.444c0.118-0.015,0.237-0.022,0.356-0.022c3.313,0,6.662,5.652,4.209,7.921l-28.113,22.92
		L96.054,106.101z"/>
	<path fill="#FFFFFF" d="M59.724,153.784H37.449c-3.721,0-6.737,3.019-6.737,6.736v22.277c0,3.722,3.017,6.734,6.737,6.734h22.275
		c3.721,0,6.739-3.012,6.739-6.734v-10.428V161.6v-1.08C66.463,156.803,63.445,153.784,59.724,153.784z M57.837,180.911H39.337
		v-18.502h18.501V180.911z"/>
	<path fill="#FFFFFF" d="M37.449,134.904h22.275c3.721,0,6.739-3.019,6.739-6.736v-13.341l-6.966,9.028v4.086h-21.82v-12.709
		l5.178,5.878c1.316,1.315,3.04,1.976,4.764,1.976c1.721,0,3.441-0.659,4.753-1.962l19.373-20.692
		c3.491-3.476,1.087-7.699-2.311-7.699c-1.171,0-2.459,0.503-3.668,1.709l-18.1,16.708l-5.728-5.035l7.876-6.962H37.449
		c-3.721,0-6.737,3.017-6.737,6.736v22.277C30.712,131.885,33.729,134.904,37.449,134.904z"/>
	<path fill="#FFFFFF" d="M37.449,79.32h22.275c3.721,0,6.739-3.009,6.739-6.734V50.309c0-3.717-3.018-6.736-6.739-6.736H37.449
		c-3.721,0-6.737,3.019-6.737,6.736v22.277C30.712,76.311,33.729,79.32,37.449,79.32z M39.337,52.196h18.501V70.7H39.337V52.196z"/>
</g>
</svg>
